<svg xmlns="http://www.w3.org/2000/svg" viewBox="0 0 200 200" width="200" height="200">
  <!-- Nube izquierda -->
  <g opacity="0.9">
    <ellipse cx="50" cy="80" rx="25" ry="18" fill="#E0F2FE"/>
    <ellipse cx="35" cy="85" rx="18" ry="15" fill="#E0F2FE"/>
    <ellipse cx="65" cy="85" rx="20" ry="15" fill="#E0F2FE"/>
    <ellipse cx="50" cy="90" rx="28" ry="12" fill="#E0F2FE"/>
  </g>
  
  <!-- Nube derecha -->
  <g opacity="0.9">
    <ellipse cx="150" cy="75" rx="28" ry="20" fill="#E0F2FE"/>
    <ellipse cx="133" cy="82" rx="20" ry="16" fill="#E0F2FE"/>
    <ellipse cx="167" cy="82" rx="22" ry="16" fill="#E0F2FE"/>
    <ellipse cx="150" cy="88" rx="30" ry="14" fill="#E0F2FE"/>
  </g>
  
  <!-- Nube superior -->
  <g opacity="0.85">
    <ellipse cx="100" cy="45" rx="30" ry="20" fill="#DBEAFE"/>
    <ellipse cx="80" cy="50" rx="22" ry="16" fill="#DBEAFE"/>
    <ellipse cx="120" cy="50" rx="24" ry="16" fill="#DBEAFE"/>
    <ellipse cx="100" cy="55" rx="32" ry="14" fill="#DBEAFE"/>
  </g>
  
  <!-- Calendario -->
  <g>
    <!-- Cuerpo del calendario -->
    <rect x="65" y="85" width="70" height="80" rx="6" fill="#FFFFFF" stroke="#3B82F6" stroke-width="3"/>
    
    <!-- Header del calendario -->
    <rect x="65" y="85" width="70" height="20" rx="6" fill="#3B82F6"/>
    <rect x="65" y="95" width="70" height="10" fill="#3B82F6"/>
    
    <!-- Anillas del calendario -->
    <circle cx="80" cy="85" r="4" fill="#1E40AF" stroke="#FFFFFF" stroke-width="1.5"/>
    <circle cx="100" cy="85" r="4" fill="#1E40AF" stroke="#FFFFFF" stroke-width="1.5"/>
    <circle cx="120" cy="85" r="4" fill="#1E40AF" stroke="#FFFFFF" stroke-width="1.5"/>
    
    <!-- Grid de días -->
    <!-- Semana 1 -->
    <rect x="72" y="112" width="8" height="8" rx="1.5" fill="#93C5FD"/>
    <rect x="84" y="112" width="8" height="8" rx="1.5" fill="#93C5FD"/>
    <rect x="96" y="112" width="8" height="8" rx="1.5" fill="#93C5FD"/>
    <rect x="108" y="112" width="8" height="8" rx="1.5" fill="#93C5FD"/>
    <rect x="120" y="112" width="8" height="8" rx="1.5" fill="#93C5FD"/>
    
    <!-- Semana 2 -->
    <rect x="72" y="124" width="8" height="8" rx="1.5" fill="#BFDBFE"/>
    <rect x="84" y="124" width="8" height="8" rx="1.5" fill="#BFDBFE"/>
    <rect x="96" y="124" width="8" height="8" rx="1.5" fill="#3B82F6"/>
    <rect x="108" y="124" width="8" height="8" rx="1.5" fill="#BFDBFE"/>
    <rect x="120" y="124" width="8" height="8" rx="1.5" fill="#BFDBFE"/>
    
    <!-- Semana 3 -->
    <rect x="72" y="136" width="8" height="8" rx="1.5" fill="#BFDBFE"/>
    <rect x="84" y="136" width="8" height="8" rx="1.5" fill="#BFDBFE"/>
    <rect x="96" y="136" width="8" height="8" rx="1.5" fill="#BFDBFE"/>
    <rect x="108" y="136" width="8" height="8" rx="1.5" fill="#BFDBFE"/>
    <rect x="120" y="136" width="8" height="8" rx="1.5" fill="#BFDBFE"/>
    
    <!-- Semana 4 -->
    <rect x="72" y="148" width="8" height="8" rx="1.5" fill="#BFDBFE"/>
    <rect x="84" y="148" width="8" height="8" rx="1.5" fill="#BFDBFE"/>
    <rect x="96" y="148" width="8" height="8" rx="1.5" fill="#BFDBFE"/>
    <rect x="108" y="148" width="8" height="8" rx="1.5" fill="#BFDBFE"/>
    <rect x="120" y="148" width="8" height="8" rx="1.5" fill="#BFDBFE"/>
  </g>
  
  <!-- Nube inferior izquierda -->
  <g opacity="0.8">
    <ellipse cx="55" cy="150" rx="22" ry="16" fill="#F0F9FF"/>
    <ellipse cx="42" cy="155" rx="16" ry="12" fill="#F0F9FF"/>
    <ellipse cx="68" cy="155" rx="18" ry="12" fill="#F0F9FF"/>
  </g>
  
  <!-- Nube inferior derecha -->
  <g opacity="0.8">
    <ellipse cx="145" cy="155" rx="24" ry="17" fill="#F0F9FF"/>
    <ellipse cx="130" cy="160" rx="17" ry="13" fill="#F0F9FF"/>
    <ellipse cx="160" cy="160" rx="19" ry="13" fill="#F0F9FF"/>
  </g>
</svg>
